Coordinates
version=1
nRows=14
nColumns=40
inDegrees=yes

Units are S.I. units (second, meters, Newtons, ...)
Angles are in degrees.

endheader
time	pelvis_tilt	pelvis_list	pelvis_rotation	pelvis_tx	pelvis_ty	pelvis_tz	hip_flexion_r	hip_adduction_r	hip_rotation_r	knee_angle_r	knee_angle_r_beta	ankle_angle_r	subtalar_angle_r	mtp_angle_r	hip_flexion_l	hip_adduction_l	hip_rotation_l	knee_angle_l	knee_angle_l_beta	ankle_angle_l	subtalar_angle_l	mtp_angle_l	lumbar_extension	lumbar_bending	lumbar_rotation	arm_flex_r	arm_add_r	arm_rot_r	elbow_flex_r	pro_sup_r	wrist_flex_r	wrist_dev_r	arm_flex_l	arm_add_l	arm_rot_l	elbow_flex_l	pro_sup_l	wrist_flex_l	wrist_dev_l
     27.75250000	     -5.61423359	     -3.88395864	      9.16478457	      0.89825165	      0.91977908	      0.46152942	      0.74292908	      2.00194665	    -16.35569772	     15.52743892	     15.52743892	     18.80886264	     -4.42645951	      0.23273342	     27.45026406	     -1.98600248	      2.51035707	     23.34582115	     23.34582115	      5.40340657	     -9.48413749	     -1.60944177	     -7.41283589	      1.15358222	      4.28751729	     48.42049217	    -20.68657257	    -13.11472722	     95.45016123	     44.52293458	      0.00000000	      0.00000000	    -11.78049002	     -9.40739980	      1.16304953	     35.20228885	     45.06039325	      0.00000000	      0.00000000
     27.77171429	     -5.75929354	     -3.94381485	      9.01306614	      0.89875912	      0.92041209	      0.45904574	      0.58159905	      1.87020867	    -16.30425509	     15.70401503	     15.70401503	     18.48720853	     -4.38108886	      0.31296629	     27.17396950	     -1.94674579	      2.53631848	     23.44542891	     23.44542891	      5.94935782	     -9.58660362	     -1.75095883	     -7.25586480	      1.10832045	      4.21711480	     48.33190837	    -20.14527575	    -12.85762626	     95.40986569	     44.51716254	      0.00000000	      0.00000000	    -10.33716049	     -9.62457438	      0.93627621	     35.85407719	     45.11361586	      0.00000000	      0.00000000
     27.79092857	     -5.85264358	     -4.03922140	      8.80235780	      0.89921092	      0.92117496	      0.45676409	      0.45617136	      1.76560310	    -16.22864597	     16.01918581	     16.01918581	     18.14793864	     -4.32584630	      0.35401881	     26.80811884	     -1.98991088	      2.47794771	     23.47898527	     23.47898527	      6.49649642	     -9.66641625	     -1.87850194	     -7.17728731	      1.08904566	      4.19359270	     48.16290687	    -19.68759266	    -12.63761686	     95.26457144	     44.51552684	      0.00000000	      0.00000000	     -8.80045259	     -9.88540729	      0.66897685	     36.62233168	     45.17233351	      0.00000000	      0.00000000
     27.81014286	     -5.87145766	     -4.01631696	      8.46499385	      0.89960030	      0.92200534	      0.45472413	      0.50871285	      1.47014611	    -16.02794867	     16.83934722	     16.83934722	     17.74776761	     -4.54330889	     -0.25761700	     26.37893644	     -2.07809930	      1.91646936	     23.64989805	     23.64989805	      7.72528331	     -8.88278966	     -0.72046170	     -7.25356049	      0.85500090	      3.91126800	     48.15411179	    -18.96610031	    -12.51466830	     94.51945586	     44.59627686	      0.00000000	      0.00000000	     -8.50831633	     -9.34230504	     -4.96424334	     40.78635069	     45.90988939	      0.00000000	      0.00000000
     27.82935714	     -5.94455250	     -4.02150135	      8.16549195	      0.89991655	      0.92281999	      0.45267541	      0.68063476	      1.18494897	    -15.85987354	     17.75348448	     17.75348448	     17.45928719	     -4.71321795	     -0.43892398	     25.87306398	     -2.08112120	      1.70177027	     23.49233360	     23.49233360	      8.12174045	     -8.91371141	     -0.83320719	     -7.17000205	      0.74552575	      3.87652990	     47.82408122	    -18.61797838	    -12.22089970	     93.88542503	     44.61522213	      0.00000000	      0.00000000	     -6.67878565	     -9.60883155	     -5.35435363	     41.24569535	     45.98171306	      0.00000000	      0.00000000
     27.84857143	     -5.94024087	     -4.03407966	      7.83500409	      0.90028006	      0.92370714	      0.45069682	      0.84902225	      0.90216675	    -15.64622136	     18.80467056	     18.80467056	     17.15371025	     -4.94585800	     -0.69181841	     25.26794579	     -2.11038760	      1.48241258	     23.31344669	     23.31344669	      8.48589201	     -8.97180338	     -0.93657304	     -7.16421233	      0.66473296	      3.80055667	     47.35732997	    -18.17809603	    -11.97738030	     93.33612425	     44.63056898	      0.00000000	      0.00000000	     -4.86007930	     -9.86517340	     -5.63312993	     41.76814114	     46.03946711	      0.00000000	      0.00000000
     27.86778571	     -5.93391151	     -4.01026076	      7.48302491	      0.90056820	      0.92451380	      0.44871353	      1.14979078	      0.54225890	    -15.38360202	     20.09907118	     20.09907118	     16.84671070	     -5.29085097	     -1.09487097	     24.64869043	     -2.09056142	      1.26011999	     23.11344394	     23.11344394	      8.79174218	     -9.11498358	     -1.01638536	     -7.14995078	      0.57694692	      3.68471334	     46.78950013	    -17.73895078	    -11.75976321	     92.63562342	     44.65155970	      0.00000000	      0.00000000	     -2.95589050	    -10.14265809	     -5.82479646	     42.14369121	     46.08701676	      0.00000000	      0.00000000
     27.88700000	     -5.87580532	     -3.97063578	      7.09463380	      0.90088082	      0.92527005	      0.44670518	      1.50568014	      0.13482509	    -15.10088222	     21.59175189	     21.59175189	     16.51869666	     -5.68113887	     -1.61915974	     23.98419581	     -2.04664127	      1.07306662	     22.94228209	     22.94228209	      9.07807868	     -9.38232981	     -1.06823348	     -7.19742549	      0.50007657	      3.52729242	     46.10278633	    -17.25909048	    -11.52282762	     91.78416933	     44.67526559	      0.00000000	      0.00000000	     -0.96730170	    -10.41868763	     -5.86220323	     42.32858843	     46.11703901	      0.00000000	      0.00000000
     27.90621429	     -5.81839757	     -3.90305519	      6.72028615	      0.90116932	      0.92590387	      0.44448064	      1.90971989	     -0.32910850	    -14.75327045	     23.11685278	     23.11685278	     15.64917664	     -6.34491586	     -3.60055403	     23.32060243	     -1.87917439	      1.14019304	     22.76506674	     22.76506674	      9.18731896	    -10.13757946	     -1.09969618	     -7.10008362	      0.51258337	      3.36679120	     45.52218824	    -16.73441516	    -11.28275834	     89.89848982	     44.75939565	      0.00000000	      0.00000000	      1.59778950	    -10.64464506	     -5.37944607	     40.74161393	     46.09239450	      0.00000000	      0.00000000
     27.92542857	     -5.53612054	     -4.13243692	      6.38732772	      0.90169426	      0.92683472	      0.44233525	      1.97011118	     -0.42435899	    -14.57517442	     24.41978659	     24.41978659	     15.18300154	     -6.42995007	     -3.83300952	     22.55298327	     -2.11107814	      1.07591283	     22.78356572	     22.78356572	      9.52031952	    -10.35427827	     -1.15110497	     -7.39290474	      0.88090531	      2.99320686	     44.48356480	    -16.13211556	    -10.98471662	     89.40969936	     44.76210951	      0.00000000	      0.00000000	      3.39899157	    -10.92967561	     -5.36129982	     41.27249494	     46.11572222	      0.00000000	      0.00000000
     27.94464286	     -5.56121574	     -3.67733592	      5.80574910	      0.90172716	      0.92674669	      0.43989297	      3.20496927	     -1.55871670	    -13.94939505	     27.42694697	     27.42694697	     14.79588915	     -7.28728272	     -5.13445904	     22.04089854	     -1.55704796	      0.78407025	     22.82990913	     22.82990913	      9.77433255	    -11.10042504	     -1.03016363	     -7.31782981	      0.52990154	      3.12166963	     43.50381809	    -15.99242327	    -10.75734496	     87.54211835	     44.81685309	      0.00000000	      0.00000000	      5.53401147	    -11.10342469	     -4.97261891	     41.07071399	     46.09933854	      0.00000000	      0.00000000
     27.96385714	     -5.38059090	     -3.62114484	      5.34483065	      0.90200529	      0.92695320	      0.43733777	      3.76057727	     -2.09718659	    -13.43294247	     29.21985893	     29.21985893	     11.96670438	     -9.16630833	    -11.88691927	     21.45580589	     -1.31850574	      1.09198068	     23.05377253	     23.05377253	     10.15509176	    -12.27876069	     -0.24962467	     -7.22665761	      0.74160827	      3.24589849	     42.58979646	    -15.76453847	    -10.47702550	     84.28421490	     44.96695188	      0.00000000	      0.00000000	      8.57455761	    -11.50067799	     -1.99245537	     38.41191405	     45.82165064	      0.00000000	      0.00000000
     27.98307143	     -5.18225860	     -3.50517736	      4.77765688	      0.90220880	      0.92684983	      0.43475183	      4.84578106	     -2.85301323	    -12.83074743	     32.21944164	     32.21944164	     11.16074481	     -9.86582430	    -12.85088524	     20.92474984	     -1.09720458	      1.01353577	     23.42046680	     23.42046680	     10.51665298	    -13.09025915	     -0.13086679	     -7.38205258	      0.90819732	      3.22412257	     41.30042765	    -15.48231460	    -10.22612257	     82.51308076	     45.01525881	      0.00000000	      0.00000000	     10.47305162	    -11.61822379	     -1.75564523	     38.66451245	     45.82386751	      0.00000000	      0.00000000
     28.00228571	     -4.89444788	     -3.47000067	      4.22819186	      0.90240269	      0.92672779	      0.43203122	      5.86391924	     -3.46245818	    -12.08758900	     35.05906554	     35.05906554	      9.01043991	    -11.61622773	    -16.39906547	     20.40091676	     -0.84097701	      1.34441358	     23.97572593	     23.97572593	     11.07919130	    -14.50456226	      1.00592345	     -7.44837011	      1.26083209	      3.13526990	     40.61246569	    -15.08326531	     -9.76635234	     77.78705029	     45.16386932	      0.00000000	      0.00000000	     12.88184956	    -11.76888453	     -0.38284334	     37.30476395	     45.70809333	      0.00000000	      0.00000000
